<?xml version="1.0" encoding="UTF-8"?>
<svg id="a" data-name="Layer 1" xmlns="http://www.w3.org/2000/svg" viewBox="0 0 437.2 491.51">
  <path d="M247.65,13.59c-1.02-13.09,16.3-17.28,18.86-4.2.88,4.51-2.41,9.47.52,11.83,1.68,1.36,9.42,2.9,12.46,4.16,112.59,46.88,171.04,130.65,155.13,256.2-16.12,127.25-123.67,210.8-250.06,209.92C17.19,490.34-40.45,250.68,28.55,127.59c21.89-39.05,58.99-77.25,100.1-95.45l-.11-10.24c-1.52-.94-21.6,4.01-24.68,5.1-7.63,2.7-15.07,14.78-22.45,5.3-13.1-16.83,31.39-27.48,41.5-29.18,42.31-7.14,84.01-1.33,124.73,10.47ZM244.93,31.66c-33.5-9.37-65.92-14.89-101.03-12.53,3.9,12.48,8.82,24.86,9.75,38.03,1.72,24.53-2.92,45.79-4.27,69.26-1.22,21.25,1.21,43.56-.18,64.92-16.37,9.58-29.6,22.84-41.29,37.66-16.06,20.36-26.28,32.97-12.74,58.37,8.89,16.69,23.25,38.85,34.3,54.35,3.29,4.62,12.11,17.18,15.78,20.24.98.81,2.48,1.48,2.78-.07,2.24-8.21,3.48-22,15.17-17.9,12.93,4.54-.22,24.36-.69,33.79-.17,3.36,15.14,13.73,18.19,13.93,6.74.44,11.87-10.93,21.76-8.03,5.38,1.58,6.29,8.66,4.24,13.31-.95,2.15-3.57.8-3.23,3.02,17.01,3.94,39.1-1.46,49.63-16.14,12.44-17.34,28.12-73.85,29.3-95.36,1.15-20.94-4.61-64.26-27.66-72.05-7.05-2.38-16.22-1.54-17.95-12.51-2.41-15.21,1.34-36.48-1.52-52.61,2.42-16.82,1.49-34.18,2.84-51.18,1.79-22.64,6.95-45.54,6.84-68.51ZM342.89,81.98c-19.08-14.6-48.42-30.53-70.79-39.35-1.68-.66-9.67-3.55-10.42-2.73l-5.53,50.57-2.84,42.86v63.55c13.71,4.02,22.32,10.8,30.31,22.6,26.92,39.76,15.12,97.24-1.18,138.96,11.71,1.49,13.28,21.01,16.94,30.88,4.2,11.33,8.78,22.71,13.32,33.92-2.07,9.59-7.54,11.85-16.26,7.79-6.09-2.84-38.43-25.75-40.8-25.33-19.26,14.99-47.11,18.28-69.52,8.49-4.05,4.68-7.11,9.95-11.7,14.23-8.65,8.08-46.63,28.98-50.98,9.38-2.73-10.38,17.67-46.16,15.76-53.08-4.62-6.78-11.04-12.2-16.01-18.69-10.71-13.97-51.17-73.53-53.74-87.54-5.96-32.5,27.89-70.94,50.89-91.14,2.73-2.39,8.49-3.94,9.46-7.15.19-13.83-1.76-27.46-1.17-41.34.8-18.81,5.21-37.77,5.65-56.67.25-10.49-.31-20.83-1.45-31.22-1.91-2.08-23.6,11.85-26.75,14.11C13.49,131.71-.96,246.6,34.91,349.08c38.45,109.87,115.43,146.8,227.85,110.9,105.64-33.73,161.76-122.28,152.68-232.42-4.88-59.23-24.35-108.7-72.55-145.58ZM285.16,401.41c.63-.81-5.08-18.16-5.86-19.75-.91-1.89-1.49-2.84-3.81-2.4l-4.95,12.5,14.61,9.66ZM168.73,405.69l-13.75-7.05-6.93,24.92c1.8,1.9,22.43-11.99,20.68-17.87Z" style="fill: #fff;"/>
</svg>